<svg width="37" height="37" viewBox="0 0 37 37" fill="none" xmlns="http://www.w3.org/2000/svg">
<path d="M18.6538 28.5979L18.4997 28.7521L18.3301 28.5979C11.0072 21.9533 6.16634 17.5596 6.16634 13.1042C6.16634 10.0208 8.47884 7.70833 11.5622 7.70833C13.9363 7.70833 16.2488 9.25 17.0659 11.3467H19.9334C20.7505 9.25 23.063 7.70833 25.4372 7.70833C28.5205 7.70833 30.833 10.0208 30.833 13.1042C30.833 17.5596 25.9922 21.9533 18.6538 28.5979ZM25.4372 4.625C22.7547 4.625 20.1801 5.87375 18.4997 7.83167C16.8193 5.87375 14.2447 4.625 11.5622 4.625C6.81384 4.625 3.08301 8.34042 3.08301 13.1042C3.08301 18.9163 8.32468 23.68 16.2643 30.8796L18.4997 32.9146L20.7351 30.8796C28.6747 23.68 33.9163 18.9163 33.9163 13.1042C33.9163 8.34042 30.1855 4.625 25.4372 4.625Z" fill="#FF3D00"/>
</svg>
