<svg width="31" height="31" viewBox="0 0 31 31" fill="none" xmlns="http://www.w3.org/2000/svg">
<circle cx="15.25" cy="15.25" r="15.25" fill="#D1FAE5"/>
<path d="M16.3684 8.13332H14.5384C14.37 8.13332 14.2334 7.99668 14.2334 7.82832C14.2334 7.65996 14.37 7.52332 14.5384 7.52332H16.3684C16.5368 7.52332 16.6734 7.65996 16.6734 7.82832C16.6734 7.99668 16.5368 8.13332 16.3684 8.13332Z" fill="#19A075"/>
<path d="M18.8085 24.6033H12.0985C11.2573 24.6033 10.5735 23.9189 10.5735 23.0783V12.7083C10.5735 12.54 10.7101 12.4033 10.8785 12.4033C11.0468 12.4033 11.1835 12.54 11.1835 12.7083V23.0783C11.1835 23.5828 11.594 23.9933 12.0985 23.9933H18.8085C19.313 23.9933 19.7235 23.5828 19.7235 23.0783V12.7083C19.7235 12.54 19.8601 12.4033 20.0285 12.4033C20.1968 12.4033 20.3335 12.54 20.3335 12.7083V23.0783C20.3335 23.9189 19.6497 24.6033 18.8085 24.6033Z" fill="#19A075"/>
<path d="M20.0285 14.8433C19.8601 14.8433 19.7235 14.7067 19.7235 14.5383V7.82834C19.7235 7.32387 19.313 6.91334 18.8085 6.91334H12.0985C11.594 6.91334 11.1835 7.32387 11.1835 7.82834V14.5383C11.1835 14.7067 11.0468 14.8433 10.8785 14.8433C10.7101 14.8433 10.5735 14.7067 10.5735 14.5383V7.82834C10.5735 6.98776 11.2573 6.30334 12.0985 6.30334H18.8085C19.6497 6.30334 20.3335 6.98776 20.3335 7.82834V14.5383C20.3335 14.7067 20.1968 14.8433 20.0285 14.8433Z" fill="#19A075"/>
<path d="M21.8585 9.38379C21.6901 9.38379 21.5535 9.27765 21.5535 9.10929V9.04829C21.5535 8.87993 21.6901 8.74329 21.8585 8.74329C22.0268 8.74329 22.1635 8.87993 22.1635 9.04829C22.1635 9.21665 22.0268 9.38379 21.8585 9.38379Z" fill="#19A075"/>
<path d="M21.8585 10.6038C21.6901 10.6038 21.5535 10.4976 21.5535 10.3293V10.2683C21.5535 10.0999 21.6901 9.96326 21.8585 9.96326C22.0268 9.96326 22.1635 10.0999 22.1635 10.2683C22.1635 10.4366 22.0268 10.6038 21.8585 10.6038Z" fill="#19A075"/>
<path d="M21.8585 11.8237C21.6901 11.8237 21.5535 11.7176 21.5535 11.5492V11.4882C21.5535 11.3199 21.6901 11.1832 21.8585 11.1832C22.0268 11.1832 22.1635 11.3199 22.1635 11.4882C22.1635 11.6566 22.0268 11.8237 21.8585 11.8237Z" fill="#19A075"/>
<path d="M9.04768 19.6929C8.87932 19.6929 8.74268 19.5867 8.74268 19.4184V19.3574C8.74268 19.189 8.87932 19.0524 9.04768 19.0524C9.21604 19.0524 9.35268 19.189 9.35268 19.3574C9.35268 19.5257 9.21604 19.6929 9.04768 19.6929Z" fill="#19A075"/>
<path d="M9.04768 20.913C8.87932 20.913 8.74268 20.8068 8.74268 20.6385V20.5775C8.74268 20.4091 8.87932 20.2725 9.04768 20.2725C9.21604 20.2725 9.35268 20.4091 9.35268 20.5775C9.35268 20.7458 9.21604 20.913 9.04768 20.913Z" fill="#19A075"/>
<path d="M9.04768 22.1329C8.87932 22.1329 8.74268 22.0268 8.74268 21.8584V21.7974C8.74268 21.6291 8.87932 21.4924 9.04768 21.4924C9.21604 21.4924 9.35268 21.6291 9.35268 21.7974C9.35268 21.9658 9.21604 22.1329 9.04768 22.1329Z" fill="#19A075"/>
<path d="M20.8466 22.1633C20.8252 22.1633 20.8033 22.1615 20.7819 22.1566C20.6172 22.1212 20.5129 21.9589 20.5483 21.7942L20.7496 20.8609C20.774 20.7463 20.8624 20.6566 20.9759 20.6291C21.2638 20.5596 21.5444 20.4425 21.8098 20.2808C21.908 20.2198 22.0342 20.2217 22.1325 20.2839L22.7364 20.67L23.1103 20.293L22.7242 19.694C22.6607 19.5958 22.6595 19.4695 22.7199 19.3701C22.8815 19.1048 22.9987 18.8242 23.0676 18.5362C23.095 18.4228 23.1841 18.3349 23.2982 18.3093L23.9936 18.155V17.6322L23.2988 17.4779C23.1847 17.4523 23.0956 17.3644 23.0682 17.251C22.9993 16.963 22.8815 16.6824 22.7205 16.4171C22.6595 16.3177 22.6607 16.192 22.7242 16.0938L23.1109 15.4893L22.7376 15.116L22.1331 15.5027C22.0349 15.5655 21.9092 15.5668 21.8104 15.5058C21.5444 15.3441 21.2638 15.227 20.9765 15.1574C20.8624 15.13 20.7746 15.0397 20.7502 14.9256L20.6001 14.2333H20.3336C20.1652 14.2333 20.0286 14.0967 20.0286 13.9283C20.0286 13.7599 20.1652 13.6233 20.3336 13.6233H20.846C20.9893 13.6233 21.1138 13.7239 21.1436 13.8642L21.3065 14.6164C21.5298 14.6841 21.7488 14.7756 21.9598 14.8897L22.615 14.4706C22.7357 14.3937 22.8931 14.4108 22.995 14.5121L23.7154 15.2319C23.8167 15.3331 23.8337 15.4911 23.7563 15.6119L23.3372 16.267C23.4513 16.4787 23.5428 16.6977 23.6105 16.9216L24.3638 17.0887C24.5041 17.1198 24.6036 17.2443 24.6036 17.387V18.3996C24.6036 18.5423 24.5041 18.6668 24.3644 18.6973L23.6111 18.8644C23.5434 19.0883 23.4519 19.3073 23.3378 19.5183L23.7563 20.1674C23.8344 20.2875 23.8179 20.4461 23.7166 20.5474L22.9962 21.2733C22.8943 21.3752 22.7364 21.3923 22.6156 21.3154L21.9604 20.8963C21.7488 21.0104 21.5304 21.1019 21.3071 21.1696L21.1443 21.9217C21.1131 22.0657 20.9863 22.1633 20.8466 22.1633Z" fill="#19A075"/>
<path d="M21.1819 19.4659C21.0843 19.4659 20.9879 19.4184 20.9287 19.3311C20.8348 19.1914 20.872 19.0017 21.0123 18.9078C21.3508 18.6796 21.5534 18.3002 21.5534 17.8934C21.5534 17.2205 21.0062 16.6734 20.3334 16.6734C20.2504 16.6734 20.168 16.6819 20.0894 16.6978C19.9259 16.7307 19.763 16.6258 19.7288 16.4599C19.6953 16.2945 19.8014 16.1335 19.9667 16.1C20.0863 16.0762 20.2095 16.0634 20.3334 16.0634C21.3423 16.0634 22.1634 16.8844 22.1634 17.8934C22.1634 18.504 21.8602 19.0725 21.3514 19.4141C21.2996 19.4489 21.2404 19.4659 21.1819 19.4659Z" fill="#19A075"/>
<path d="M10.5727 14.8433C9.56374 14.8433 8.74268 14.0223 8.74268 13.0133C8.74268 12.4003 9.04768 11.8312 9.55886 11.4896C9.69733 11.3968 9.88765 11.4334 9.98159 11.5743C10.0749 11.714 10.0371 11.9037 9.8968 11.9971C9.55642 12.2252 9.35268 12.6046 9.35268 13.0133C9.35268 13.6862 9.89985 14.2333 10.5727 14.2333C10.6544 14.2333 10.7349 14.2254 10.8118 14.2095C10.9734 14.176 11.1375 14.2827 11.1711 14.4487C11.2046 14.614 11.0973 14.7744 10.932 14.8073C10.8155 14.8311 10.6959 14.8433 10.5727 14.8433Z" fill="#19A075"/>
<path d="M10.5735 17.2834H10.0611C9.91772 17.2834 9.79328 17.1827 9.76339 17.0424L9.60052 16.2903C9.37726 16.2226 9.15827 16.1311 8.94721 16.017L8.29207 16.4361C8.17068 16.5129 8.01391 16.4965 7.91204 16.3946L7.19163 15.6748C7.09037 15.5735 7.07329 15.4156 7.15076 15.2948L7.56983 14.6396C7.45576 14.428 7.36426 14.209 7.29655 13.9851L6.5432 13.818C6.4029 13.7869 6.30347 13.6624 6.30347 13.5197V12.5071C6.30347 12.3643 6.4029 12.2399 6.54259 12.2094L7.29594 12.0423C7.36365 11.8184 7.45515 11.5994 7.56922 11.3883L7.15137 10.7387C7.07329 10.6185 7.08976 10.4599 7.19102 10.3587L7.91143 9.63275C8.01208 9.53027 8.17068 9.51319 8.29207 9.59066L8.94721 10.0097C9.15888 9.89566 9.37726 9.80416 9.60052 9.73645L9.76339 8.98432C9.79877 8.81901 9.96408 8.71409 10.1257 8.75069C10.2904 8.78607 10.3947 8.94833 10.3594 9.11303L10.1581 10.0463C10.1337 10.161 10.0452 10.2507 9.93175 10.2781C9.64383 10.3477 9.36323 10.4648 9.09727 10.6264C8.99845 10.6874 8.87279 10.6856 8.77458 10.6234L8.17068 10.2373L7.79614 10.6142L8.18227 11.2133C8.24632 11.3115 8.24754 11.4377 8.18654 11.5372C8.02489 11.8025 7.90777 12.0831 7.83884 12.371C7.81139 12.4845 7.72233 12.5723 7.60826 12.598L6.91347 12.7517V13.2745L7.60826 13.4288C7.72233 13.4544 7.81139 13.5422 7.83884 13.6557C7.90777 13.9436 8.0255 14.2242 8.18654 14.4896C8.24754 14.589 8.24632 14.7147 8.18288 14.8129L7.79614 15.4168L8.16946 15.7901L8.77397 15.4034C8.87218 15.3411 8.99845 15.3399 9.09666 15.4003C9.36262 15.562 9.64322 15.6791 9.93053 15.7486C10.0446 15.7761 10.1324 15.8663 10.1568 15.9804L10.3069 16.6734H10.5735C10.7418 16.6734 10.8785 16.81 10.8785 16.9784C10.8785 17.1467 10.7418 17.2834 10.5735 17.2834Z" fill="#19A075"/>
<path d="M15.1488 16.9783C15.1244 16.9783 15.1 16.9752 15.075 16.9691C14.9109 16.9283 14.8121 16.763 14.853 16.5995L15.463 14.1595C15.5032 13.9954 15.6661 13.8966 15.8326 13.9374C15.9967 13.9783 16.0955 14.1436 16.0547 14.3071L15.4447 16.7471C15.4105 16.8862 15.2861 16.9783 15.1488 16.9783Z" fill="#19A075"/>
<path d="M16.9787 16.9783C16.9007 16.9783 16.8226 16.9484 16.7628 16.8892C16.6438 16.7702 16.6438 16.5769 16.7628 16.4579L17.7675 15.4533L16.7634 14.4492C16.6445 14.3302 16.6445 14.1369 16.7634 14.0179C16.8824 13.899 17.0757 13.899 17.1947 14.0179L18.4147 15.2379C18.5336 15.3569 18.5336 15.5502 18.4147 15.6692L17.1947 16.8892C17.1349 16.9484 17.0568 16.9783 16.9787 16.9783Z" fill="#19A075"/>
<path d="M13.9287 16.9784C13.8506 16.9784 13.7726 16.9485 13.7128 16.8893L12.4928 15.6693C12.3738 15.5504 12.3738 15.357 12.4928 15.238L13.7128 14.018C13.8317 13.8991 14.0251 13.8991 14.144 14.018C14.263 14.137 14.263 14.3304 14.144 14.4493L13.14 15.4534L14.144 16.4574C14.263 16.5764 14.263 16.7698 14.144 16.8887C14.0849 16.9485 14.0068 16.9784 13.9287 16.9784Z" fill="#19A075"/>
</svg>
