<svg width="31" height="31" viewBox="0 0 31 31" fill="none" xmlns="http://www.w3.org/2000/svg">
<circle cx="15.25" cy="15.25" r="15.25" fill="#FEE2E2"/>
<g clip-path="url(#clip0_209_2467)">
<path d="M18.685 7.25281H13.7057C13.5454 7.25281 13.4155 7.3827 13.4155 7.54302C13.4155 7.70333 13.5455 7.83322 13.7057 7.83322H18.685C18.8453 7.83322 18.9752 7.70333 18.9752 7.54302C18.9752 7.3827 18.8453 7.25281 18.685 7.25281Z" fill="#DF3838"/>
<path d="M15.9239 8.4895H13.7065C13.5462 8.4895 13.4163 8.61943 13.4163 8.77971C13.4163 8.94003 13.5462 9.06992 13.7065 9.06992H15.9239C16.0842 9.06992 16.2141 8.94003 16.2141 8.77971C16.2141 8.61939 16.0841 8.4895 15.9239 8.4895Z" fill="#DF3838"/>
<path d="M23.9601 8.54012C23.7998 8.54012 23.6699 8.67001 23.6699 8.83032C23.6699 8.9906 23.7997 9.12053 23.9601 9.12053C24.2456 9.12053 24.4778 9.35279 24.4778 9.63831V17.8841H22.3598V9.12049H22.8435C23.0038 9.12049 23.1337 8.9906 23.1337 8.83028C23.1337 8.67001 23.0038 8.54008 22.8435 8.54008H22.3598V6.56532C22.3598 6.08452 21.9687 5.69336 21.4879 5.69336H9.34091C8.86012 5.69336 8.46896 6.08452 8.46896 6.56532V8.54012H6.94609C6.34055 8.54012 5.8479 9.03277 5.8479 9.63831V18.1743V20.8485C5.8479 21.454 6.34055 21.9467 6.94609 21.9467H8.73331C8.89359 21.9467 9.02352 21.8168 9.02352 21.6565C9.02352 21.4962 8.89363 21.3663 8.73331 21.3663H6.94609C6.66057 21.3663 6.42832 21.134 6.42832 20.8485V18.4645H8.75913H22.0696H24.4778V20.8485C24.4778 21.134 24.2455 21.3663 23.96 21.3663H17.5414H13.3647H10.1005C9.94024 21.3663 9.81031 21.4962 9.81031 21.6565C9.81031 21.8168 9.9402 21.9467 10.1005 21.9467H13.0745V23.4845C12.2929 23.4985 11.6611 24.1382 11.6611 24.9232C11.6611 25.0834 11.791 25.2134 11.9513 25.2134H18.9548C19.1151 25.2134 19.245 25.0835 19.245 24.9232C19.245 24.1382 18.6133 23.4984 17.8317 23.4845V21.9467H23.9601C24.5656 21.9467 25.0582 21.454 25.0582 20.8485V18.1743V9.63831C25.0582 9.03277 24.5656 8.54012 23.9601 8.54012ZM8.46896 17.8841H6.42832V9.63831C6.42832 9.35279 6.66057 9.12053 6.94609 9.12053H8.46896V17.8841ZM21.7794 9.93313H11.8933C11.733 9.93313 11.6031 10.063 11.6031 10.2233C11.6031 10.3836 11.733 10.5135 11.8933 10.5135H21.7794V17.8841H9.04933V10.5135H10.3842C10.5445 10.5135 10.6744 10.3836 10.6744 10.2233C10.6744 10.063 10.5446 9.93313 10.3842 9.93313H9.04933V6.56532C9.04933 6.40454 9.1801 6.27377 9.34087 6.27377H21.4879C21.6487 6.27377 21.7794 6.40454 21.7794 6.56532V9.93313ZM13.6549 21.9467H17.2512V23.4838H13.6549V21.9467ZM18.6142 24.6329H12.292C12.4112 24.3017 12.7286 24.0642 13.1005 24.0642H13.3647H17.5414H17.8057C18.1775 24.0642 18.4949 24.3017 18.6142 24.6329Z" fill="#DF3838"/>
<path d="M15.609 19.0383C15.1254 19.0383 14.7319 19.4318 14.7319 19.9154C14.7319 20.399 15.1254 20.7924 15.609 20.7924C16.0926 20.7924 16.486 20.399 16.486 19.9154C16.486 19.4318 16.0926 19.0383 15.609 19.0383ZM15.609 20.212C15.4454 20.212 15.3123 20.079 15.3123 19.9154C15.3123 19.7518 15.4454 19.6187 15.609 19.6187C15.7726 19.6187 15.9056 19.7518 15.9056 19.9154C15.9056 20.079 15.7725 20.212 15.609 20.212Z" fill="#DF3838"/>
<path d="M12.2266 8.69492L11.2714 7.04049C11.2195 6.95071 11.1237 6.89539 11.02 6.89539C10.9163 6.89539 10.8206 6.95071 10.7687 7.04049L9.81355 8.69492C9.7617 8.78471 9.7617 8.89535 9.81355 8.98513C9.8654 9.07492 9.96117 9.13024 10.0649 9.13024H11.9753C12.0789 9.13024 12.1747 9.07492 12.2266 8.98513C12.2784 8.89535 12.2784 8.78471 12.2266 8.69492ZM10.5675 8.54986L11.02 7.76601L11.4726 8.54986H10.5675Z" fill="#DF3838"/>
<path d="M20.9242 11.5836H16.7214C16.5611 11.5836 16.4312 11.7135 16.4312 11.8738C16.4312 12.0341 16.561 12.164 16.7214 12.164H20.9242C21.0845 12.164 21.2144 12.0341 21.2144 11.8738C21.2144 11.7135 21.0845 11.5836 20.9242 11.5836Z" fill="#DF3838"/>
<path d="M20.9242 12.8599H16.7214C16.5611 12.8599 16.4312 12.9898 16.4312 13.1501C16.4312 13.3104 16.561 13.4403 16.7214 13.4403H20.9242C21.0845 13.4403 21.2144 13.3104 21.2144 13.1501C21.2144 12.9898 21.0845 12.8599 20.9242 12.8599Z" fill="#DF3838"/>
<path d="M20.9242 14.1362H16.7214C16.5611 14.1362 16.4312 14.2661 16.4312 14.4264C16.4312 14.5867 16.561 14.7166 16.7214 14.7166H20.9242C21.0845 14.7166 21.2144 14.5868 21.2144 14.4264C21.2144 14.2661 21.0845 14.1362 20.9242 14.1362Z" fill="#DF3838"/>
<path d="M20.9242 15.4125H16.7214C16.5611 15.4125 16.4312 15.5424 16.4312 15.7027C16.4312 15.863 16.561 15.9929 16.7214 15.9929H20.9242C21.0845 15.9929 21.2144 15.863 21.2144 15.7027C21.2144 15.5424 21.0845 15.4125 20.9242 15.4125Z" fill="#DF3838"/>
<path d="M18.6852 16.6888H16.7214C16.5611 16.6888 16.4312 16.8187 16.4312 16.9791C16.4312 17.1393 16.561 17.2693 16.7214 17.2693H18.6852C18.8455 17.2693 18.9754 17.1394 18.9754 16.9791C18.9754 16.8187 18.8455 16.6888 18.6852 16.6888Z" fill="#DF3838"/>
<path d="M15.4148 11.3391H10.0651C9.90483 11.3391 9.7749 11.469 9.7749 11.6293V15.0511V16.9791C9.7749 17.1393 9.90479 17.2693 10.0651 17.2693H15.4148C15.5751 17.2693 15.7051 17.1394 15.7051 16.9791V15.3395V11.6293C15.7051 11.469 15.5751 11.3391 15.4148 11.3391ZM10.3554 11.9195H15.1246V14.9539C15.0922 14.9483 15.0597 14.9434 15.0272 14.9398C14.5214 14.8831 14.2306 15.0855 13.9968 15.2481C13.8213 15.3701 13.6698 15.4755 13.416 15.4961C13.0053 15.5298 12.7421 15.3115 12.4086 15.0356C12.0374 14.7286 11.6163 14.381 10.9471 14.4212C10.7464 14.4334 10.5486 14.4796 10.3554 14.5587V11.9195ZM15.1247 16.6888H15.1246H10.3553V15.207C10.5612 15.0827 10.7715 15.0134 10.9823 15.0006C11.4231 14.9737 11.7084 15.2097 12.0387 15.4828C12.4037 15.7847 12.817 16.1266 13.4629 16.0746C13.8727 16.0413 14.1252 15.8657 14.3282 15.7247C14.5363 15.5799 14.674 15.4844 14.9627 15.5166C15.0164 15.5226 15.0705 15.5327 15.1247 15.5468V16.6888Z" fill="#DF3838"/>
<path d="M13.5053 12.5677C13.0157 12.5677 12.6174 12.966 12.6174 13.4556C12.6174 13.9452 13.0157 14.3435 13.5053 14.3435C13.9949 14.3435 14.3932 13.9452 14.3932 13.4556C14.3932 12.966 13.9949 12.5677 13.5053 12.5677ZM13.5053 13.7632C13.3358 13.7632 13.1978 13.6252 13.1978 13.4556C13.1978 13.2861 13.3358 13.1481 13.5053 13.1481C13.6749 13.1481 13.8128 13.2861 13.8128 13.4556C13.8128 13.6252 13.6749 13.7632 13.5053 13.7632Z" fill="#DF3838"/>
</g>
<defs>
<clipPath id="clip0_209_2467">
<rect width="19.52" height="19.52" fill="white" transform="translate(5.69312 5.69336)"/>
</clipPath>
</defs>
</svg>
