<svg width="31" height="31" viewBox="0 0 31 31" fill="none" xmlns="http://www.w3.org/2000/svg">
<circle cx="15.25" cy="15.25" r="15.25" fill="#DBEAFE"/>
<g clip-path="url(#clip0_209_2382)">
<path d="M15.4531 8.19866C15.6114 8.19866 15.7397 8.07038 15.7397 7.91207V5.97995C15.7397 5.82164 15.6114 5.69336 15.4531 5.69336C15.2948 5.69336 15.1665 5.82164 15.1665 5.97995V7.91207C15.1665 8.07038 15.2948 8.19866 15.4531 8.19866V8.19866Z" fill="#2865EB"/>
<path d="M10.1064 10.2456C10.2184 10.3575 10.3998 10.3575 10.5117 10.2456C10.6237 10.1337 10.6237 9.95225 10.5117 9.84032L9.14551 8.47405C9.03358 8.3622 8.85215 8.36213 8.74019 8.47405C8.62827 8.58601 8.62827 8.76744 8.74019 8.87937L10.1064 10.2456Z" fill="#2865EB"/>
<path d="M8.17798 14.9006H6.24582C6.08751 14.9006 5.95923 15.0289 5.95923 15.1872C5.95923 15.3455 6.08751 15.4738 6.24582 15.4738H8.17794C8.33625 15.4738 8.46453 15.3455 8.46453 15.1872C8.46453 15.0289 8.33625 14.9006 8.17798 14.9006V14.9006Z" fill="#2865EB"/>
<path d="M10.1064 20.1289L8.74019 21.4952C8.62827 21.6071 8.62827 21.7886 8.74019 21.9005C8.85215 22.0124 9.03355 22.0124 9.14551 21.9005L10.5117 20.5342C10.6237 20.4223 10.6237 20.2409 10.5117 20.1289C10.3998 20.0171 10.2184 20.0171 10.1064 20.1289Z" fill="#2865EB"/>
<path d="M20.8 20.129C20.6881 20.0171 20.5067 20.0171 20.3947 20.129C20.2828 20.2409 20.2828 20.4223 20.3947 20.5343L21.761 21.9005C21.8729 22.0124 22.0543 22.0124 22.1663 21.9005C22.2782 21.7885 22.2782 21.6071 22.1663 21.4952L20.8 20.129Z" fill="#2865EB"/>
<path d="M24.6608 14.9006H22.7287C22.5704 14.9006 22.4421 15.0289 22.4421 15.1872C22.4421 15.3455 22.5704 15.4738 22.7287 15.4738H24.6608C24.8192 15.4738 24.9474 15.3455 24.9474 15.1872C24.9474 15.0289 24.8191 14.9006 24.6608 14.9006Z" fill="#2865EB"/>
<path d="M21.761 8.47405L20.3947 9.84032C20.2828 9.95229 20.2828 10.1337 20.3947 10.2456C20.5067 10.3575 20.6881 10.3575 20.8 10.2456L22.1663 8.87937C22.2782 8.7674 22.2782 8.58597 22.1663 8.47405C22.0543 8.36217 21.8729 8.36217 21.761 8.47405V8.47405Z" fill="#2865EB"/>
<path d="M21.1147 14.608C21.1147 11.4413 18.5749 8.86499 15.4531 8.86499C14.3595 8.86499 13.2982 9.18188 12.3837 9.78139C11.4941 10.3647 10.7849 11.1853 10.3328 12.1545C10.2659 12.2979 10.3279 12.4685 10.4713 12.5354C10.6149 12.6024 10.7853 12.5402 10.8522 12.3968C11.6906 10.5995 13.4965 9.43817 15.4531 9.43817C18.2588 9.43817 20.5415 11.7573 20.5415 14.608C20.5415 15.962 20.0298 17.2421 19.1008 18.2124C18.5653 18.7717 18.1096 19.306 17.9923 20.0548H12.9888C12.8411 19.2775 12.3109 18.7322 11.8344 18.2425C10.8867 17.2685 10.3647 15.9777 10.3647 14.608C10.3647 14.2698 10.3971 13.9315 10.4608 13.6026C10.491 13.4472 10.3894 13.2968 10.234 13.2666C10.0787 13.2367 9.92827 13.3381 9.89812 13.4935C9.82735 13.8583 9.7915 14.2333 9.7915 14.608C9.7915 16.1279 10.3711 17.5606 11.4237 18.6423C12.0281 19.2635 12.456 19.7593 12.456 20.4861C12.456 20.4886 12.4561 20.4912 12.4561 20.4937L12.4726 22.1755C12.4726 22.7212 12.7636 23.2001 13.1986 23.4653V23.7804C13.1986 24.5706 13.8414 25.2134 14.6316 25.2134H16.3893C17.1795 25.2134 17.8223 24.5706 17.8223 23.7804V23.4653C18.2572 23.2001 18.5483 22.7212 18.5483 22.1755C18.5483 22.1755 18.5463 20.3021 18.5425 20.2835C18.5968 19.6193 18.9994 19.1471 19.5148 18.6088C20.5465 17.5313 21.1147 16.1104 21.1147 14.608V14.608ZM17.2491 23.7804C17.2491 24.2545 16.8633 24.6402 16.3893 24.6402H14.6315C14.1575 24.6402 13.7718 24.2545 13.7718 23.7804V23.67C13.8405 23.6796 13.9106 23.6849 13.9819 23.6849H17.0389C17.1102 23.6849 17.1803 23.6796 17.2491 23.67V23.7804ZM17.0389 23.1117H13.9819C13.4657 23.1117 13.0457 22.6918 13.0457 22.1755V22.1564H15.9498C16.1082 22.1564 16.2364 22.0281 16.2364 21.8698C16.2364 21.7115 16.1082 21.5832 15.9498 21.5832H13.0457V20.6279H17.9662L17.9751 21.5832H17.2873C17.129 21.5832 17.0007 21.7115 17.0007 21.8698C17.0007 22.0281 17.129 22.1564 17.2873 22.1564H17.9751V22.1755C17.9751 22.6918 17.5551 23.1117 17.0389 23.1117V23.1117Z" fill="#2865EB"/>
<path d="M17.3163 14.6459C17.2193 14.7709 17.2419 14.951 17.3669 15.048C17.4919 15.1451 17.6719 15.1225 17.769 14.9975L18.3364 14.2668C18.4867 14.0733 18.5525 13.8329 18.522 13.5899C18.4914 13.3468 18.368 13.1302 18.1745 12.98C17.981 12.8297 17.7405 12.7635 17.4975 12.7944C17.2545 12.825 17.0379 12.9484 16.8877 13.1419L15.0367 15.5257L13.9744 14.3504C13.6353 13.9753 13.0542 13.946 12.6791 14.285C12.4974 14.4493 12.3905 14.6744 12.3781 14.9191C12.3658 15.1638 12.4495 15.3986 12.6137 15.5803L14.4097 17.5674C14.7712 17.9867 15.4856 17.961 15.8144 17.5149L16.9487 16.054C17.0458 15.929 17.0231 15.749 16.8981 15.6519C16.7731 15.5549 16.5931 15.5774 16.496 15.7025L15.3617 17.1634C15.2386 17.3306 14.9699 17.3404 14.835 17.183L13.039 15.196C12.9118 15.0553 12.9228 14.8374 13.0636 14.7103C13.2042 14.5832 13.4221 14.5941 13.5493 14.7348L14.8408 16.1638C14.9534 16.2943 15.1772 16.2868 15.2798 16.1474L17.3405 13.4935C17.4508 13.3452 17.6795 13.3164 17.823 13.4328C17.9714 13.5431 18.0001 13.7717 17.8837 13.9154L17.3163 14.6459Z" fill="#2865EB"/>
</g>
<defs>
<clipPath id="clip0_209_2382">
<rect width="19.52" height="19.52" fill="white" transform="translate(5.69312 5.69336)"/>
</clipPath>
</defs>
</svg>
