<svg width="14" height="14" viewBox="0 0 14 14" fill="none" xmlns="http://www.w3.org/2000/svg">
<path fill-rule="evenodd" clip-rule="evenodd" d="M7.0007 0.599609C5.26255 0.599609 5.04441 0.607209 4.36174 0.638276C3.6804 0.669477 3.21533 0.777345 2.80839 0.935613C2.38745 1.09908 2.03038 1.31775 1.67464 1.67362C1.31864 2.02936 1.09997 2.38643 0.935968 2.80723C0.7773 3.2143 0.669298 3.67951 0.638631 4.36058C0.608098 5.04326 0.600098 5.26152 0.600098 6.99968C0.600098 8.73783 0.607831 8.9553 0.638765 9.63797C0.670098 10.3193 0.777966 10.7844 0.936101 11.1913C1.0997 11.6123 1.31837 11.9693 1.67424 12.3251C2.02985 12.6811 2.38692 12.9003 2.80759 13.0637C3.21479 13.222 3.68 13.3299 4.3612 13.3611C5.04388 13.3921 5.26188 13.3997 6.9999 13.3997C8.73818 13.3997 8.95565 13.3921 9.63833 13.3611C10.3197 13.3299 10.7853 13.222 11.1925 13.0637C11.6133 12.9003 11.9698 12.6811 12.3254 12.3251C12.6814 11.9693 12.9001 11.6123 13.0641 11.1915C13.2214 10.7844 13.3294 10.3192 13.3614 9.6381C13.3921 8.95543 13.4001 8.73783 13.4001 6.99968C13.4001 5.26152 13.3921 5.04339 13.3614 4.36071C13.3294 3.67937 13.2214 3.2143 13.0641 2.80737C12.9001 2.38643 12.6814 2.02936 12.3254 1.67362C11.9694 1.31762 11.6134 1.09895 11.1921 0.935613C10.7841 0.777345 10.3187 0.669477 9.63739 0.638276C8.95472 0.607209 8.73738 0.599609 6.9987 0.599609H7.0007ZM6.42653 1.75294C6.59693 1.75267 6.78707 1.75294 7.00067 1.75294C8.70949 1.75294 8.91202 1.75907 9.58683 1.78974C10.2108 1.81827 10.5495 1.92254 10.7751 2.01014C11.0738 2.12614 11.2867 2.26481 11.5106 2.48881C11.7346 2.71281 11.8733 2.92615 11.9895 3.22482C12.0771 3.45015 12.1815 3.78882 12.2099 4.41283C12.2406 5.0875 12.2473 5.29017 12.2473 6.99819C12.2473 8.70621 12.2406 8.90888 12.2099 9.58355C12.1814 10.2076 12.0771 10.5462 11.9895 10.7716C11.8735 11.0702 11.7346 11.2829 11.5106 11.5068C11.2866 11.7308 11.0739 11.8694 10.7751 11.9854C10.5498 12.0734 10.2108 12.1774 9.58683 12.206C8.91216 12.2366 8.70949 12.2433 7.00067 12.2433C5.29172 12.2433 5.08918 12.2366 4.41451 12.206C3.7905 12.1772 3.45183 12.0729 3.2261 11.9853C2.92743 11.8693 2.71409 11.7306 2.49009 11.5066C2.26609 11.2826 2.12742 11.0698 2.01115 10.771C1.92355 10.5457 1.81915 10.207 1.79075 9.58302C1.76008 8.90835 1.75395 8.70568 1.75395 6.99659C1.75395 5.28751 1.76008 5.0859 1.79075 4.41123C1.81928 3.78722 1.92355 3.44855 2.01115 3.22295C2.12715 2.92428 2.26609 2.71095 2.49009 2.48694C2.71409 2.26294 2.92743 2.12427 3.2261 2.00801C3.4517 1.92001 3.7905 1.816 4.41451 1.78734C5.00492 1.76067 5.23372 1.75267 6.42653 1.75134V1.75294ZM10.417 2.81562C9.99297 2.81562 9.64897 3.15922 9.64897 3.58336C9.64897 4.00736 9.99297 4.35137 10.417 4.35137C10.841 4.35137 11.185 4.00736 11.185 3.58336C11.185 3.15935 10.841 2.81562 10.417 2.81562ZM7.00071 3.71296C5.18562 3.71296 3.71401 5.18457 3.71401 6.99966C3.71401 8.81474 5.18562 10.2857 7.00071 10.2857C8.81579 10.2857 10.2869 8.81474 10.2869 6.99966C10.2869 5.18457 8.81579 3.71296 7.00071 3.71296ZM7.00068 4.8663C8.17883 4.8663 9.13404 5.82138 9.13404 6.99966C9.13404 8.1778 8.17883 9.13301 7.00068 9.13301C5.8224 9.13301 4.86733 8.1778 4.86733 6.99966C4.86733 5.82138 5.8224 4.8663 7.00068 4.8663Z" fill="#002454"/>
</svg>
