<svg width="14" height="14" viewBox="0 0 14 14" fill="none" xmlns="http://www.w3.org/2000/svg">
<path fill-rule="evenodd" clip-rule="evenodd" d="M13.4001 6.99074C13.4001 7.42355 13.356 7.85577 13.2695 8.27709C13.1851 8.68839 13.0601 9.0922 12.8963 9.47821C12.7363 9.8574 12.5379 10.2228 12.306 10.5636C12.0776 10.9022 11.8144 11.2199 11.5253 11.5095C11.2356 11.7978 10.9169 12.0602 10.5784 12.2896C10.2365 12.5199 9.87059 12.7181 9.49118 12.8788C9.10461 13.0417 8.69987 13.1665 8.28892 13.2508C7.86705 13.3375 7.43325 13.3818 6.99981 13.3818C6.56604 13.3818 6.13227 13.3375 5.711 13.2508C5.29942 13.1665 4.89471 13.0417 4.50844 12.8788C4.12905 12.7181 3.76277 12.5199 3.42088 12.2896C3.08243 12.0602 2.76366 11.7978 2.47458 11.5095C2.1852 11.2199 1.92205 10.9022 1.69329 10.5636C1.46265 10.2228 1.26388 9.85738 1.10326 9.47821C0.939478 9.0922 0.814177 8.68837 0.729482 8.27709C0.64386 7.85577 0.600098 7.42355 0.600098 6.99074C0.600098 6.55759 0.643835 6.12445 0.729507 5.70406C0.814202 5.29275 0.939503 4.88833 1.10328 4.50293C1.2639 4.12347 1.46268 3.75774 1.69332 3.41695C1.92207 3.07806 2.18523 2.76098 2.47461 2.47106C2.76369 2.1827 3.08245 1.9209 3.42091 1.69185C3.76279 1.46059 4.12908 1.26246 4.50846 1.10142C4.89474 0.938175 5.29942 0.813055 5.71102 0.729433C6.13229 0.643309 6.56606 0.599609 6.99984 0.599609C7.43328 0.599609 7.86705 0.643309 8.28895 0.729433C8.6999 0.81308 9.10461 0.9382 9.49121 1.10142C9.87059 1.26243 10.2366 1.46059 10.5784 1.69185C10.9169 1.9209 11.2357 2.1827 11.5254 2.47106C11.8144 2.76098 12.0776 3.07806 12.306 3.41695C12.5379 3.75774 12.7363 4.1235 12.8963 4.50293C13.0601 4.88833 13.1851 5.29275 13.2695 5.70406C13.356 6.12445 13.4001 6.55759 13.4001 6.99074ZM4.66779 2.05414C3.14363 2.77285 2.00607 4.17526 1.65136 5.86542C1.79545 5.86667 4.07307 5.89538 6.69726 5.19914C5.75128 3.52085 4.74061 2.15122 4.66779 2.05414ZM7.15009 6.03957C4.33589 6.88087 1.63543 6.82033 1.53856 6.81661C1.53698 6.87526 1.53417 6.93205 1.53417 6.99073C1.53417 8.39282 2.06389 9.67104 2.93456 10.6375C2.93268 10.6347 4.4284 7.98497 7.37792 7.03255C7.44916 7.00884 7.52168 6.9876 7.59355 6.96702C7.45638 6.65684 7.30665 6.34602 7.15009 6.03957ZM10.6094 2.89455C9.6471 2.04727 8.38362 1.53333 6.99979 1.53333C6.5557 1.53333 6.12474 1.58701 5.71191 1.68624C5.79377 1.7961 6.82041 3.15607 7.75513 4.86991C9.81744 4.09788 10.5959 2.91451 10.6094 2.89455ZM7.96612 7.87138C7.95394 7.87541 7.94177 7.87888 7.92987 7.88324C4.70507 9.00583 3.65196 11.2682 3.64057 11.2929C4.56845 12.0134 5.73226 12.4481 6.99983 12.4481C7.75672 12.4481 8.47769 12.2942 9.13366 12.0156C9.05272 11.5388 8.73521 9.86736 7.96612 7.87138ZM10.054 11.5169C11.2812 10.69 12.1528 9.3768 12.396 7.85575C12.2835 7.81955 10.7543 7.33615 8.99018 7.61859C9.70709 9.58587 9.99838 11.188 10.054 11.5169ZM8.17582 5.68317C8.30268 5.94344 8.42552 6.20834 8.53895 6.47456C8.57928 6.57007 8.61866 6.66369 8.65709 6.7573C10.5347 6.52137 12.3845 6.91831 12.4635 6.93452C12.451 5.64072 11.9876 4.4533 11.2207 3.52368C11.2104 3.53831 10.3338 4.80312 8.17582 5.68317Z" fill="#002454"/>
</svg>
